<?xml version="1.0" encoding="UTF-8" standalone="no"?>
<!-- Created with Inkscape (http://www.inkscape.org/) -->

<svg
   xmlns:dc="http://purl.org/dc/elements/1.1/"
   xmlns:cc="http://creativecommons.org/ns#"
   xmlns:rdf="http://www.w3.org/1999/02/22-rdf-syntax-ns#"
   xmlns:svg="http://www.w3.org/2000/svg"
   xmlns="http://www.w3.org/2000/svg"
   xmlns:sodipodi="http://sodipodi.sourceforge.net/DTD/sodipodi-0.dtd"
   xmlns:inkscape="http://www.inkscape.org/namespaces/inkscape"
   width="83.372002mm"
   height="83.372002mm"
   viewBox="0 0 83.372002 83.372002"
   version="1.1"
   id="svg8"
   inkscape:version="0.92.2 (5c3e80d, 2017-08-06)"
   sodipodi:docname="94.svg">
  <defs
     id="defs2" />
  <sodipodi:namedview
     id="base"
     pagecolor="#ffffff"
     bordercolor="#666666"
     borderopacity="1.0"
     inkscape:pageopacity="0.0"
     inkscape:pageshadow="2"
     inkscape:zoom="0.9899495"
     inkscape:cx="214.56732"
     inkscape:cy="29.041633"
     inkscape:document-units="mm"
     inkscape:current-layer="layer1"
     showgrid="false"
     fit-margin-top="0"
     fit-margin-left="0"
     fit-margin-right="0"
     fit-margin-bottom="0"
     inkscape:window-width="1920"
     inkscape:window-height="1057"
     inkscape:window-x="-8"
     inkscape:window-y="-8"
     inkscape:window-maximized="1" />
  <metadata
     id="metadata5">
    <rdf:RDF>
      <cc:Work
         rdf:about="">
        <dc:format>image/svg+xml</dc:format>
        <dc:type
           rdf:resource="http://purl.org/dc/dcmitype/StillImage" />
        <dc:title></dc:title>
      </cc:Work>
    </rdf:RDF>
  </metadata>
  <g
     inkscape:label="Layer 1"
     inkscape:groupmode="layer"
     id="layer1"
     transform="translate(-4.1733084e-4,-213.62758)">
    <rect
       style="opacity:1;fill:#000000;fill-opacity:1;fill-rule:nonzero;stroke:none;stroke-width:21.49853706;stroke-linecap:square;stroke-linejoin:round;stroke-miterlimit:4;stroke-dasharray:none;stroke-opacity:1;paint-order:stroke fill markers"
       id="rect815"
       width="60"
       height="60"
       x="-181.05711"
       y="180.01071"
       rx="3.0009999"
       ry="3.0009999"
       transform="rotate(-45)" />
    <rect
       ry="1.5"
       rx="1.5"
       y="181.51071"
       x="-179.55711"
       height="57"
       width="57"
       id="rect817"
       style="opacity:1;fill:#fad20a;fill-opacity:1;fill-rule:nonzero;stroke:none;stroke-width:20.42361069;stroke-linecap:square;stroke-linejoin:round;stroke-miterlimit:4;stroke-dasharray:none;stroke-opacity:1;paint-order:stroke fill markers"
       transform="rotate(-45)" />
    <path
       d="m 27.234863,270.17595 c 19.319099,-3.64927 -15.755752,-6.34547 19.651708,-8.70973"
       style="fill:none;stroke:#000000;stroke-width:1.10000002;stroke-linecap:round;stroke-linejoin:round;stroke-miterlimit:22.9260006;stroke-dasharray:none;stroke-opacity:1"
       id="path1026"
       inkscape:connector-curvature="0" />
    <path
       d="m 51.570876,270.25929 c 8.126767,-5.26772 -4.80894,-6.34544 -14.219597,-6.09762 -16.791122,0.45664 -19.030788,-7.04843 -3.855411,-7.29778"
       style="fill:none;stroke:#000000;stroke-width:1.10000002;stroke-linecap:round;stroke-linejoin:round;stroke-miterlimit:22.9260006;stroke-dasharray:none;stroke-opacity:1"
       id="path1030"
       inkscape:connector-curvature="0" />
    <path
       sodipodi:nodetypes="cccccccccccccccccccccc"
       inkscape:connector-curvature="0"
       id="path2764"
       d="m 45.356188,237.30336 c -2.30347,-0.72647 -4.19554,-1.11648 -5.57311,-1.42177 -1.16143,-0.24658 -2.71713,0.15127 -3.59684,1.55463 l -2.750081,4.32159 c -0.69599,0.0691 -1.8145,0.74098 -2.34159,2.2885 l -1.0782,4.61271 c -0.18264,0.8702 -0.19884,1.95989 0.32631,2.55602 l -0.96724,2.97685 2.94835,0.95797 0.95797,-2.94834 c 1.85443,0.7541 7.453571,2.63826 8.212141,2.87857 0.754899,0.25159 6.39273,2.01834 8.336232,2.49832 l -0.957982,2.94834 2.947849,0.95782 0.96724,-2.97685 c 0.775251,-0.17361 1.402652,-1.06471 1.76638,-1.87607 l 1.838999,-4.36551 c 0.483172,-1.56179 -0.0268,-2.7628 -0.549248,-3.22779 l 0.31532,-5.11269 c 0.113181,-1.65242 -0.911572,-2.8887 -1.99612,-3.37189 -1.293921,-0.56273 -3.053871,-1.35934 -5.34444,-2.12556 z"
       style="fill:#000000;fill-opacity:1;fill-rule:nonzero;stroke:none;stroke-width:0.17403181" />
    <path
       inkscape:connector-curvature="0"
       id="path2766"
       d="m 35.285848,242.08532 2.2816,-3.94839 c 0.40981,-0.64992 1.15495,-0.87167 1.73662,-0.7811 l 2.48984,0.55635 c 1.07382,0.22294 3.5258,0.96282 4.82973,1.38018 1.30023,0.42878 3.71882,1.2714 4.718591,1.72226 l 2.341829,1.01356 c 0.52382,0.26861 0.99581,0.88584 0.945341,1.65251 l -0.474951,4.5354 c -3.59324,-1.52569 -7.07137,-2.73657 -9.29218,-3.5028 -2.24707,-0.68543 -5.77265,-1.75023 -9.57642,-2.62797 z"
       style="fill:#fad20a;fill-opacity:1;fill-rule:nonzero;stroke:none;stroke-width:0.17403181" />
  </g>
</svg>
